<svg xmlns="http://www.w3.org/2000/svg" width="192" height="192" viewBox="0 0 192 192">
  <defs>
    <clipPath id="wg">
      <circle cx="96" cy="84" r="60"/>
    </clipPath>
  </defs>
  <rect width="192" height="192" rx="20" fill="#0B1F3A"/>
  <circle cx="96" cy="84" r="60" fill="#0B3D7A"/>
  <g transform="translate(33.5, 21.5) scale(1.25)" clip-path="url(#wg)">
    <path d="M 2,5 Q 50,5 98,5 L 98,13 Q 50,12 2,13 Z" fill="#29ABE2"/>
    <path d="M 2,18 Q 50,15 98,18 L 98,26 Q 50,23 2,26 Z" fill="#29ABE2"/>
    <path d="M 2,31 Q 50,26 98,31 L 98,39 Q 50,34 2,39 Z" fill="#29ABE2"/>
    <path d="M 2,44 Q 50,37 98,44 L 98,52 Q 50,46 2,52 Z" fill="#29ABE2"/>
    <path d="M 2,57 Q 50,52 98,57 L 98,65 Q 50,61 2,65 Z" fill="#29ABE2"/>
    <path d="M 2,70 Q 50,67 98,70 L 98,78 Q 50,76 2,78 Z" fill="#29ABE2"/>
    <path d="M 2,83 Q 50,82 98,83 L 98,91 Q 50,91 2,91 Z" fill="#29ABE2"/>
  </g>
  <circle cx="96" cy="84" r="60" fill="none" stroke="white" stroke-width="2.5"/>
  <text x="96" y="170" text-anchor="middle" font-family="Georgia, serif" font-size="11" letter-spacing="3" fill="#C9A84C" font-weight="600">STAFF</text>
</svg>
